<?xml version="1.0" encoding="UTF-8" standalone="no"?>
<!DOCTYPE svg PUBLIC "-//W3C//DTD SVG 1.1//EN" "http://www.w3.org/Graphics/SVG/1.1/DTD/svg11.dtd">
<svg width="100%" height="100%" viewBox="0 0 1794 1794" version="1.1" xmlns="http://www.w3.org/2000/svg" xmlns:xlink="http://www.w3.org/1999/xlink" xml:space="preserve" xmlns:serif="http://www.serif.com/" style="fill-rule:evenodd;clip-rule:evenodd;stroke-linecap:round;stroke-linejoin:round;stroke-miterlimit:1;">
    <g transform="matrix(1,0,0,1,-702.009,-8.93205)">
        <g transform="matrix(1.94967,0,0,1.94967,-4279.68,-2746.35)">
            <g transform="matrix(1.01251,0,0,1.01251,366.644,32.1341)">
                <circle cx="2615.76" cy="1818.3" r="440.174" style="fill:rgb(38,109,229);"/>
            </g>
            <g transform="matrix(1.04498,0,0,1.04498,281.695,-26.9168)">
                <circle cx="2615.76" cy="1818.3" r="440.174" style="fill:none;"/>
            </g>
            <g>
                <g transform="matrix(1,0,0,1,3.29041,-1.11933)">
                    <path d="M2993.89,1900.99L2709.96,1617.5L2709.83,2063.26L2856.09,2209.57L2856.77,1884.86L2795.7,1823.88L2795.86,2060.88L2771.32,2036.39L2770.89,1764.05L2951.05,1943.92L2993.89,1900.99Z" style="fill:white;stroke:white;stroke-width:6.41px;"/>
                </g>
                <path d="M3032.9,1777.77L3231.39,1579.12L3231.39,2060.96L3256.18,2036.23L3256.13,1675.94L3317.11,1614.9L3317.03,2061.46L3170.34,2208.45L3170.34,1726.71L3076.12,1820.93L3032.9,1777.77Z" style="fill:white;stroke:white;stroke-width:6.41px;"/>
                <g transform="matrix(1,0,0,1,1.09516,-1.40037)">
                    <path d="M2797.87,1581.12L2797.59,1667.32L3074.95,1944.26L3144.53,1874.68L3144.53,1788.36L3074.8,1857.62L2797.87,1581.12Z" style="fill:white;stroke:white;stroke-width:6.41px;"/>
                </g>
            </g>
        </g>
    </g>
</svg>
